<?xml version="1.0" encoding="UTF-8"?>
<svg xmlns="http://www.w3.org/2000/svg" width="650" height="747" viewBox="0 0 520 597.6">
  <path d="M20 73.5V127h42.9l.3-15.5.3-15.5 15.3 15.3 15.3 15.3-15.6 15.6c-8.5 8.6-15.5 16-15.5 16.5 0 .4 7.1 7.9 15.8 16.6L94.5 191l16-16 16-16 5.1 5.1 5.2 5.1-6.6 9.7c-27.3 40.1-34.1 90.3-18.7 136.7 17.5 52.6 61.9 92.2 116.8 103.9l7.7 1.7V476h-62v48h62v56h48v-56h62v-48h-62v-54.8l9.8-2.2c88.3-20.2 141.7-110.1 116.7-196.5-4.7-16-14.1-35.2-23.5-48l-3.8-5.2 36.9-36.9L457 95.5V164h43V20H356v43h68.5l-37.4 37.4-37.4 37.4-6.9-4.5c-13.9-9-32.5-16.6-49.8-20.4-39.3-8.5-82.9-.9-115.8 20.4l-7 4.5-5.6-5.7-5.6-5.6 16-16 16-16-15.7-15.7c-8.7-8.7-16.2-15.8-16.8-15.8-.5 0-8 7-16.5 15.5L126.5 94 111 78.5 95.5 63H127V20H20v53.5zm268.5 83.9c43.1 11.3 76.3 48.8 82.4 93 6.5 46.9-18.3 93.6-61.4 115.4-6 2.9-21.3 8.2-24.1 8.2-1.1 0-1.4-1.9-1.4-10 0-8.2.3-10 1.5-10 .8 0 6.2-2.4 11.8-5.3 29.1-15.1 48.8-37 52.8-58.8 1.5-8.5.6-14.3-3.4-21-4.7-7.8-11-10.9-22.3-10.9-4.6 0-12.8.7-18.2 1.6-14.1 2.3-27.6 1.6-33.3-1.9-2.4-1.4-5.3-3.9-6.4-5.6-1.6-2.4-2.7-3.1-5.2-3.1-6.4 0-10.8 7.2-10.7 17.5 0 10 3.9 16.1 12.9 20.8 5.6 2.8 16.7 3.5 23.3 1.3 2.9-1 6.2-1.6 7.4-1.4 3.5.5 2.9 3.8-1.2 6.6-3.2 2.2-4.3 2.4-12.7 2-9-.4-9.4-.5-22.6-7-14.6-7.3-20.8-9.3-30.8-10.3-23.6-2.3-38.9 11-38.9 33.9 0 16.9 6.9 28.1 21.5 34.6 6.4 2.9 18.4 6 23.4 6h3.1v10.5c0 12.3.4 12-11.6 8-16.2-5.4-30.2-14.2-43-26.9-49.2-48.9-43-128.4 13.2-169.7 12.1-9 26.9-15.5 42.9-18.9 13.4-2.9 37.1-2.3 51 1.4z"/>
  <path d="M271.2 173.7c-1.9.8-5.1 7.6-6.7 14.7-2.4 10.2-3.9 35.7-2.5 43.5 1.5 9 4.8 14.4 10.6 17.1 10.6 5.2 19.2-1.9 25.3-21.1 5-15.5 6.7-35.9 3.6-42-4.1-7.9-22.6-15.3-30.3-12.2zm-30.5 3.7c-10.9 4.5-17.3 10.2-21 18.6-1.7 3.9-1.9 5.7-1.3 15.8 1.1 19.4 5.3 34.7 11.1 40.4 3.9 3.9 9.4 4.2 13 .8 9.8-9.2 19.8-60.4 14.2-72.1-1.8-3.6-5.2-5.9-8.5-5.9-.9 0-4.3 1.1-7.5 2.4zm73.9 12.1c-4.3 4.4-9.9 29.2-10 45.1-.1 9.6 0 10.2 2.8 13.8 3.4 4.6 8.2 7.6 11.8 7.6 2.1 0 3.4-1 5.8-4.5 5.7-8.3 11.5-23.4 12.6-32.9 1-8.7-5.4-21.5-13.8-27.7-4.6-3.2-6.9-3.6-9.2-1.4zM198.4 204c-6.5 1.5-14.3 7.9-16.3 13.3-2.5 6.5-.6 22.9 3.9 35 5.8 15.4 16.6 24.6 24.8 21.2 4.2-1.8 5.2-6 5.2-22 0-21.5-3-40.7-7.2-46-2-2.6-4.5-3-10.4-1.5z"/>
</svg>
